<mxfile host="app.diagrams.net" modified="2024-05-09T11:57:44.699Z" agent="Mozilla/5.0 (Windows NT 10.0; Win64; x64) AppleWebKit/537.36 (KHTML, like Gecko) Chrome/124.0.0.0 Safari/537.36" version="24.2.5" etag="uw26GNog5KS7ueOFGJsm" type="github">
  <diagram name="第 1 页" id="ji1MRA8CT8oA0Vei627E">
    <mxGraphModel>
      <root>
        <mxCell id="0" />
        <mxCell id="1" parent="0" />
      </root>
    </mxGraphModel>
  </diagram>
</mxfile>
